<svg width="58" height="42" xmlns="http://www.w3.org/2000/svg"><path d="M48.29 30H23.42a5 5 0 01-4.84-3.67l-4.46-15.95A5 5 0 0118.95 4h32.79a5.72 5.72 0 015.57 7l-3.46 14.6a5.69 5.69 0 01-5.56 4.4zM18.95 6a3 3 0 00-2.91 3.84l4.47 16A3 3 0 0023.42 28h24.87a3.71 3.71 0 003.62-2.86l3.44-14.56a3.69 3.69 0 00-.7-3.17A3.73 3.73 0 0051.74 6H18.95z" fill="#fff"/><path d="M14.96 10.41a1 1 0 01-.87-.51L10.4 3.4A2.79 2.79 0 008 2H1a1 1 0 010-2h7a4.79 4.79 0 014.14 2.42l3.69 6.5a.999.999 0 01-.87 1.49zM30.03 42a4 4 0 110-8 4 4 0 010 8zm0-6a2 2 0 100 4 2 2 0 000-4zM42.03 42a4 4 0 110-8 4 4 0 010 8zm0-6a2 2 0 100 4 2 2 0 000-4z" fill="#fff"/><path d="M39.03 39h-6a1 1 0 010-2h6a1 1 0 010 2zM26.03 39h-3.67a3.281 3.281 0 01-3.23-3.73l.86-6a1.01 1.01 0 112 .29l-.86 6a1.23 1.23 0 00.3 1 1.21 1.21 0 00.95.44h3.67a1 1 0 010 2h-.02zM47.03 14h-22a1 1 0 010-2h22a1 1 0 010 2zM45.03 19h-18a1 1 0 010-2h18a1 1 0 010 2z" fill="#fff"/><path d="M43.03 24h-14a1 1 0 010-2h14a1 1 0 010 2z"/></svg>