<svg xmlns="http://www.w3.org/2000/svg" viewBox="0 0 40.8 44.3"><path fill="#FFF" d="M20.4 40.8C9.2 40.8 0 31.7 0 20.4S9.2 0 20.4 0c11.3 0 20.4 9.2 20.4 20.4s-9.1 20.4-20.4 20.4zm0-39.2C10 1.6 1.6 10 1.6 20.4S10 39.2 20.4 39.2s18.8-8.4 18.8-18.8S30.8 1.6 20.4 1.6z"/><path fill="#FFF" d="M20.4 44.3C6.3 44.3 0 32.7 0 21.2c0-.4.4-.8.8-.8s.8.4.8.8c0 10.7 5.8 21.5 18.8 21.5 17.4 0 18.8-17.1 18.8-22.3 0-.4.4-.8.8-.8s.8.4.8.8c0 11.6-5.4 23.9-20.4 23.9z"/><path fill="#FFF" d="M20.4 40.8c-.4 0-.8-.4-.8-.8v-3.6c0-.4.4-.8.8-.8s.8.4.8.8V40c0 .4-.4.8-.8.8zM20.4 5.3c-.4 0-.8-.4-.8-.8V.8c0-.4.4-.8.8-.8s.8.4.8.8v3.7c0 .4-.4.8-.8.8zM34.3 35.1c-.2 0-.4-.1-.6-.2l-2.5-2.5c-.3-.3-.3-.8 0-1.1s.8-.3 1.1 0l2.5 2.5c.3.3.3.8 0 1.1-.1.1-.3.2-.5.2zM9.1 9.9c-.2 0-.4-.1-.6-.2L6 7.1c-.3-.3-.3-.8 0-1.1s.8-.3 1.1 0l2.6 2.6c.3.3.3.8 0 1.1-.2.1-.4.2-.6.2z"/><path class="prefix__clock-arrow_big" fill="#FFF" d="M18.2 19.1c-.2 0-.4-.1-.6-.2l-5-5c-.3-.3-.3-.8 0-1.1s.8-.3 1.1 0l5 5c.3.3.3.8 0 1.1-.1.1-.3.2-.5.2z"/><path fill="#FFF" d="M40 21.2h-3.6c-.4 0-.8-.4-.8-.8s.4-.8.8-.8H40c.4 0 .8.4.8.8s-.4.8-.8.8zM4.5 21.2H.8c-.4 0-.8-.4-.8-.8s.4-.8.8-.8h3.7c.4 0 .8.4.8.8s-.4.8-.8.8zM31.7 9.9c-.2 0-.4-.1-.6-.2-.3-.3-.3-.8 0-1.1L33.7 6c.3-.3.8-.3 1.1 0s.3.8 0 1.1l-2.5 2.5c-.2.2-.4.3-.6.3z"/><path class="prefix__clock-arrow_small" fill="#FFF" d="M22.5 19.2c-.2 0-.4-.1-.6-.2-.3-.3-.3-.8 0-1.1l2.8-2.8c.3-.3.8-.3 1.1 0s.3.8 0 1.1L23 19c-.1.1-.3.2-.5.2z"/><path fill="#FFF" d="M6.5 35.1c-.2 0-.4-.1-.6-.2-.3-.3-.3-.8 0-1.1l2.6-2.6c.3-.3.8-.3 1.1 0s.3.8 0 1.1L7 34.9c0 .1-.3.2-.5.2zM20.4 24.1c-2 0-3.7-1.6-3.7-3.7s1.6-3.7 3.7-3.7c2 0 3.7 1.6 3.7 3.7s-1.6 3.7-3.7 3.7zm0-5.8c-1.1 0-2.1.9-2.1 2.1s.9 2.1 2.1 2.1 2.1-.9 2.1-2.1-.9-2.1-2.1-2.1z"/></svg>