<svg xmlns="http://www.w3.org/2000/svg" viewBox="0 0 39.5 39.2"><g fill="#FFF"><path d="M.7 39.1c-.1 0-.3 0-.4-.1-.3-.2-.4-.5-.3-.8l4.2-12.8c0-.1.1-.3.2-.3.7-.5 6.5-4.9 9.1-4.6 2 .1 5.9 3.9 6.6 4.7.1.1.2.3.2.5v12.8c0 .3-.1.5-.4.6-.2.1-.5.1-.7 0-1.9-1.2-7.3-4.5-9.3-4.5-1.9.1-7.1 3.3-8.9 4.5H.7zm9.3-6c2.3 0 6.9 2.7 9 4V25.9c-1.7-1.7-4.5-4-5.5-4.1-1.5-.1-5.6 2.5-8 4.2L2 36.7c2.2-1.3 6-3.5 8-3.6z"/><path d="M10 34.5h-.2c-.4-.1-.6-.5-.5-.9l1.7-6.3c.1-.4.5-.6.9-.5s.6.5.5.9L10.7 34c-.1.3-.4.5-.7.5zM19.7 39.1c-.2 0-.5-.1-.6-.3-.2-.3-.1-.8.2-1 .7-.5 7.3-4.7 10.1-4.7 2 .1 5.8 2.3 8 3.6L33.9 26c-2.3-1.8-6.4-4.4-7.9-4.2-1.1.1-4.1 2.5-5.8 4.3-.3.3-.7.3-1 0s-.3-.7 0-1c.8-.8 4.6-4.6 6.7-4.7 2.6-.2 8.4 4.1 9.1 4.6.1.1.2.2.2.3l4.2 12.8c.1.3 0 .6-.2.8s-.6.2-.8 0c-1.8-1.2-7-4.4-8.9-4.5-2 0-7.4 3.2-9.3 4.5-.2.2-.4.2-.5.2z"/><path d="M28.1 29.8c-.3 0-.6-.2-.7-.5l-2.2-8c-.1-.4.1-.8.5-.9s.8.1.9.5l2.2 8c.1.4-.1.8-.5.9h-.2z"/></g><path fill="#FFF" d="M19.8 25.9c-.2 0-.4-.1-.6-.3l-6.9-9.9c-1.5-1.8-2.2-3.9-2.2-6.1 0-5.3 4.3-9.6 9.6-9.6s9.6 4.3 9.6 9.6c0 1.6-.3 3.1-1.1 4.8 0 .1-.1.2-.1.2-.2.4-.4.7-.7 1l-7 10c-.2.2-.4.3-.6.3zm-.1-24.5c-4.5 0-8.2 3.7-8.2 8.2 0 1.9.7 3.7 1.9 5.3l6.4 9.1 6.4-9.2s0-.1.1-.1c.2-.2.4-.5.6-.8 0-.1.1-.1.1-.2.6-1.4.9-2.8.9-4.1 0-4.5-3.7-8.2-8.2-8.2zm7.9 12.7z"/><path fill="#FFF" d="M19.7 11.9c-4.4 0-5.5-3.8-5.5-3.9v-.2s.9-4.3 5.5-4.3 5.5 4.3 5.5 4.3V8c0 .1-1.1 3.9-5.5 3.9zm-4.5-4c.2.6 1.2 3 4.5 3s4.3-2.5 4.5-3c-.2-.6-1.1-3.4-4.5-3.4s-4.3 2.8-4.5 3.4z"/><circle fill="#FFF" cx="19.7" cy="7.1" r="1"/></svg>