<svg width="52" height="90" viewBox="0 0 52 90" fill="none" xmlns="http://www.w3.org/2000/svg">
<path d="M51.9 45.9L51.5 31.4C51.5 30.6 50.8 29.9 50 29.9C46.8 29.9 44.3 30.7 42.5 32.3V9.7C42.5 6.2 39.6 3.3 36.1 3.3C34.7 3.3 33.4 3.7 32.4 4.5C31.4 1.9 29 0 26.2 0C22.7 0 19.8 2.9 19.8 6.4V6.8C18.8 6.2 17.6 5.8 16.4 5.8C12.9 5.8 10 8.7 10 12.2V19.9C9.00001 19.3 7.80001 18.9 6.60001 18.9C3.10001 18.9 0.200012 21.8 0.200012 25.3V59.5C0.200012 72.4 2.40001 78 4.00001 82C4.90001 84.3 5.60001 86 5.60001 88.4C5.60001 89.2 6.30001 89.9 7.10001 89.9C7.90001 89.9 8.60001 89.2 8.60001 88.4C8.60001 85.4 7.80001 83.3 6.80001 80.9C5.30001 77.1 3.20001 71.8 3.20001 59.5V25.3C3.20001 23.4 4.70001 21.9 6.60001 21.9C8.50001 21.9 10 23.4 10 25.3V50.4C10 51.2 10.7 51.9 11.5 51.9C12.3 51.9 13 51.2 13 50.4V12.2C13 10.3 14.5 8.8 16.4 8.8C18.3 8.8 19.8 10.3 19.8 12.2V48.5C19.8 49.3 20.5 50 21.3 50C22.1 50 22.8 49.3 22.8 48.5V6.4C22.8 4.5 24.3 3 26.2 3C28.1 3 29.6 4.5 29.6 6.4V48.5C29.6 49.3 30.3 50 31.1 50C31.9 50 32.6 49.3 32.6 48.5V9.7C32.6 7.8 34.1 6.3 36 6.3C37.9 6.3 39.4 7.8 39.4 9.7V37.2C38.7 39.3 38.4 41.9 38.4 44.9V57.5C35 58.2 32.1 61.2 30.2 66.2C29.9 67 30.3 67.8 31.1 68.1C31.9 68.4 32.7 68 33 67.2C34.2 64 36.4 60.3 39.9 60.3C40.7 60.3 41.4 59.6 41.4 58.8V44.9C41.4 35.5 44.6 33.3 48.5 33L48.9 45.9V59.6C48.9 72.2 44.1 77.1 40.2 81.1C38.1 83.3 36.1 85.3 35.3 88.2C35.1 89 35.6 89.8 36.4 90C36.5 90 36.6 90 36.8 90C37.5 90 38.1 89.5 38.3 88.9C38.8 86.8 40.4 85.2 42.4 83.2C46.4 79.1 52 73.5 52 59.6L51.9 45.9Z" fill="#FFFBFB"/>
</svg>
