<svg version="1.1" xmlns="http://www.w3.org/2000/svg" xmlns:xlink="http://www.w3.org/1999/xlink" x="0px" y="0px" viewBox="0 0 130 192.9" enable-background="new 0 0 130 192.9" xml:space="preserve">
<path display="none" fill="#FFFFFF" d="M25.2,148.9c0,0,10.3-12,35.2-12s32.9,12.7,32.9,12.7s-13.9,15-32.9,15
	C41.4,164.6,28.5,154.8,25.2,148.9z"></path>
    <g>
        <path fill="#FFC259" d="M92.9,149.1c0,0-11-14-34.2-14c-22.4,0-33.8,14.1-33.8,14.1s16.3-11.6,33.9-11.6S92.9,149.1,92.9,149.1z"></path>
        <path d="M24.8,149.7c-0.1,0-0.2,0-0.3-0.1c-0.2-0.2-0.2-0.4,0-0.6c0.1-0.1,11.8-14.3,34.2-14.3c23.1,0,34.4,14.1,34.6,14.2
		c0.1,0.2,0.1,0.4,0,0.6c-0.1,0.2-0.4,0.2-0.6,0.1c-0.2-0.1-16.5-11.4-33.8-11.4c-17.3,0-33.5,11.4-33.7,11.5
		C25,149.6,24.9,149.7,24.8,149.7z M58.8,137.2c13.1,0,25.6,6.3,31.2,9.6c-4.5-4-14.8-11.3-31.3-11.3c-15.8,0-26.1,7.2-30.7,11.2
		C33.6,143.4,45.9,137.2,58.8,137.2z"></path>
    </g>
    <path fill="#E2E2E2" d="M94.9,104.6V36c0,0,3.1-9.4-9.6-9.4S71,34,71,34V11.2c0,0,0-10.4-10.4-10.4S48.7,11.6,48.7,11.6l-1.9,12.3
	c0,0-0.4-7.7-11.9-7.7s-10.3,9.5-10.3,9.5l-1.3,38.5c0,0-8.2-8.4-15.8-5.4S0.6,74.2,0.6,74.2V133c0,0-6.7,58.5,59,58.5
	c62.5,0,58.6-52,58.6-52s-0.7-29.6,0.9-38.3c2.1-11,9.8-22.5,9.8-22.5s-11-5.9-21-1.3S97,91.3,97,91.3L94.9,104.6z"></path>
    <path d="M59.3,192.9c-22.9,0-39.6-7.3-49.7-21.8C0.7,158.3,0,143.9,0,139.7V68.5c0-0.2-0.1-4.6,3.1-7.8c2.1-2.2,5.2-3.3,9.2-3.3
	c12.1,0,12.3,11.2,12.4,11.3v30.1c0,0.4-0.4,0.8-0.8,0.8S23,99.2,23,98.7v-30c0-0.4-0.3-9.7-10.8-9.7c-3.5,0-6.2,1-8,2.8
	c-2.7,2.8-2.6,6.7-2.6,6.7v71.3c0,8.6,2.8,51.6,57.7,51.6c22.2,0,38.6-7,48.7-20.7c9.3-12.6,9.6-26.1,9.6-27.6
	c0-5.6,0.1-12.5,0.1-18c0-3.8,0.1-6.9,0.1-8.7c0-1,0-1.9-0.1-2.8c-0.2-2.8-0.3-5.7,1-13.7c1.5-9,7.3-18,9.3-20.8
	c-3.1-1.1-13.4-4.2-21.5-0.2c-5,2.5-8.3,7.2-10,14.1c-0.1,0.4-0.5,0.7-1,0.6c-0.4-0.1-0.7-0.5-0.6-1c1.8-7.3,5.4-12.4,10.8-15.1
	c10.3-5.2,23.2,0.3,23.8,0.5c0.2,0.1,0.4,0.3,0.5,0.5s0,0.5-0.1,0.7c-0.1,0.1-7.9,10.8-9.6,20.9c-1.3,7.9-1.2,10.7-1,13.4
	c0,0.9,0.1,1.8,0.1,2.9c0,1.8,0,4.9-0.1,8.7c-0.1,5.5-0.1,12.3-0.1,17.9c0,1.5-0.3,15.5-9.9,28.5C98.8,185.7,82,192.9,59.3,192.9z"></path>
    <path d="M47.8,94.7c-0.4,0-0.8-0.4-0.8-0.8V24.5c0-0.3-0.4-8.6-11.2-8.6c-11,0-11.2,9.9-11.2,10.4V70c0,0.4-0.4,0.8-0.8,0.8
	S23,70.3,23,69.9V26.2c0-0.1,0-3,1.6-6c1.5-2.7,4.6-6,11.2-6c12.4,0,12.8,10.1,12.8,10.2v69.5C48.6,94.4,48.2,94.7,47.8,94.7z"></path>
    <path d="M95.7,105.4c-0.4,0-0.8-0.4-0.8-0.8V35.1c0-0.3-0.4-8.6-11.2-8.6c-11,0-11.2,9.9-11.2,10.4v1.5c0,0.4-0.4,0.8-0.8,0.8
	s-0.8-0.4-0.8-0.8v-1.5c0-0.1,0-3,1.6-6c1.5-2.7,4.6-6,11.2-6c12.4,0,12.8,10.1,12.8,10.2v69.5C96.5,105,96.1,105.4,95.7,105.4z"></path>
    <path d="M71.7,94.7c-0.4,0-0.8-0.4-0.8-0.8V10.2c0-0.3-0.4-8.6-11.2-8.6c-11,0-11.2,9.9-11.2,10.4v13.4c0,0.4-0.4,0.8-0.8,0.8
	S47,25.8,47,25.3V12c0-0.1,0-3,1.6-6c1.5-2.7,4.6-6,11.2-6c12.4,0,12.8,10.1,12.8,10.2v83.7C72.5,94.4,72.2,94.7,71.7,94.7z"></path>
    <g>
        <g>
            <path d="M57.1,175.8c-4.9,0-9.5-0.6-13.7-1.7c-0.3-0.1-0.4-0.3-0.3-0.6c0.1-0.3,0.3-0.4,0.6-0.3c4.1,1.1,8.6,1.7,13.4,1.7
			c4.7,0,9.2-0.6,13.2-1.6c0.3-0.1,0.5,0.1,0.6,0.3c0.1,0.3-0.1,0.5-0.3,0.6C66.5,175.3,61.9,175.8,57.1,175.8z"></path>
            <path d="M57.1,176.1c-4.9,0-9.5-0.6-13.7-1.7c-0.4-0.1-0.6-0.5-0.5-0.9s0.5-0.6,0.9-0.5c4.1,1.1,8.6,1.7,13.3,1.7
			s9.1-0.5,13.2-1.6c0.2,0,0.4,0,0.5,0.1c0.2,0.1,0.3,0.3,0.3,0.4c0.1,0.4-0.1,0.8-0.5,0.9C66.5,175.5,61.9,176.1,57.1,176.1z
			 M43.6,173.4c-0.1,0-0.2,0.1-0.2,0.2c0,0.1,0,0.2,0.2,0.3c4.2,1.1,8.8,1.7,13.6,1.7s9.3-0.6,13.4-1.7c0.1,0,0.2-0.2,0.2-0.3
			s-0.1-0.1-0.1-0.1c-0.1,0-0.1,0-0.2,0c-4.1,1.1-8.6,1.6-13.3,1.6C52.3,175.1,47.8,174.6,43.6,173.4
			C43.6,173.5,43.6,173.4,43.6,173.4z"></path>
        </g>
        <g>
            <g>
                <path fill="#FFFFFF" d="M21.4,147.9c0,0,10.8-12.7,37.3-12.7s34.9,13.4,34.9,13.4s-14.7,15.9-34.9,15.9S24.9,154.1,21.4,147.9z"></path>
                <path d="M58.7,164.8c-19.4,0-33.6-9.8-37.5-16.7c-0.1-0.1,0-0.2,0-0.3c0.1-0.1,11.2-12.8,37.5-12.8s35,13.4,35.1,13.6
				c0.1,0.1,0,0.2,0,0.3C93.6,149,78.8,164.8,58.7,164.8z M21.7,148c3.2,5.4,16.2,16.3,37,16.3c18.8,0,33-14.1,34.6-15.7
				c-1.1-1.5-10.1-13.2-34.6-13.2C34.1,135.4,23,146.6,21.7,148z"></path>
            </g>
            <g id="moving-eye_karma" class="karma__moving-eye">
                <path fill="#00B9CF" d="M43.2,137.6c0,0,4.3-10.5,15.4-10.5c11.9,0,14.8,10.5,14.8,10.5s2.4,8.7-1,13.3c-3.3,4.7-7.2,8.5-13,8.5
				s-12.2-3.6-14.9-7.7C41.9,147.5,41.6,139.9,43.2,137.6z"></path>
                <g>
                    <path d="M64.9,135.9c0.9,0.9,1.8,2,2.3,3.2c0.6,1.3,0.9,2.6,0.9,4.1c0,5.4-4.4,9.9-9.9,9.9c-5.4,0-9.9-4.4-9.9-9.9
					c0-1.5,0.3-2.9,0.9-4.1c0.5-1.2,1.4-2.3,2.4-3.2c0,0,2.1-2.4,6.6-2.4C62.7,133.5,64.9,135.9,64.9,135.9z"></path>
                    <path d="M58.3,153.5c-5.7,0-10.3-4.6-10.3-10.3c0-1.5,0.3-3,0.9-4.3c0.6-1.3,1.4-2.4,2.4-3.3c0.2-0.2,0.5-0.2,0.7,0.1
					c0.2,0.2,0.2,0.5-0.1,0.7c-0.9,0.9-1.7,1.9-2.2,3c-0.5,1.3-0.9,2.6-0.9,3.9c0,5.2,4.2,9.4,9.4,9.4s9.4-4.2,9.4-9.4
					c0-1.4-0.3-2.7-0.9-3.9c-0.5-1-1.3-2.2-2.2-3c-0.2-0.2-0.2-0.4,0-0.7c0.2-0.2,0.4-0.2,0.7,0c1,0.9,1.9,2.1,2.4,3.3
					c0.6,1.4,0.9,2.8,0.9,4.3C68.6,148.8,64,153.5,58.3,153.5z"></path>
                    <path d="M58.3,133c5.7,0,10.3,4.6,10.3,10.3c0,1.5-0.3,3-0.9,4.3c-0.6,1.3-1.4,2.4-2.4,3.3c-0.2,0.2-0.5,0.2-0.7-0.1
					c-0.2-0.2-0.2-0.5,0.1-0.7c0.9-0.9,1.7-1.9,2.2-3c0.5-1.3,0.9-2.6,0.9-3.9c0-5.2-4.2-9.4-9.4-9.4s-9.4,4.2-9.4,9.4
					c0,1.4,0.3,2.7,0.9,3.9c0.5,1,1.3,2.2,2.2,3c0.2,0.2,0.2,0.4,0,0.7c-0.2,0.2-0.4,0.2-0.7,0c-1-0.9-1.9-2.1-2.4-3.3
					c-0.6-1.4-0.9-2.8-0.9-4.3C48.1,137.6,52.7,133,58.3,133z"></path>
                </g>
                <circle class="eye-light" fill="#FFFFFF" cx="62.7" cy="139.9" r="2.4"></circle>
                <g>
                    <path d="M58.3,159.9c-9.1,0-16.6-7.4-16.6-16.6c0-1.9,0.5-4.6,1.2-6.1c0.1-0.2,0.3-0.3,0.6-0.3c0.2,0.1,0.3,0.3,0.3,0.6
					c-0.6,1.5-1.1,4.1-1.1,5.8c0,8.6,7,15.6,15.6,15.6s15.6-7,15.6-15.6c0-1.9-0.3-3.7-0.9-5.4c-0.1-0.2,0.1-0.5,0.3-0.5
					c0.2-0.1,0.5,0.1,0.5,0.3c0.7,1.8,1,3.7,1,5.7C74.8,152.5,67.4,159.9,58.3,159.9z"></path>
                    <path d="M73.8,137.8c-2.2-6.4-8.4-11.1-15.6-11.1c-9.1,0-16.6,7.4-16.6,16.6c0,2,0.3,3.8,0.9,5.5c2.2,6.4,8.4,11.1,15.6,11.1
					c9.1,0,16.6-7.4,16.6-16.6C74.8,141.4,74.4,139.5,73.8,137.8z M58.3,159c-6.7,0-12.5-4.3-14.7-10.3l0,0c0-0.1-0.1-0.1-0.1-0.2
					c-0.5-1.6-0.9-3.3-0.9-5.2c0-1.8,0.3-3.5,0.9-5.1c0-0.1,0-0.1,0-0.1c2.1-6.1,7.9-10.5,14.7-10.5c6.7,0,12.5,4.3,14.7,10.3l0,0
					c0,0.1,0.1,0.1,0.1,0.2c0.5,1.6,0.9,3.3,0.9,5.2c0,1.8-0.3,3.5-0.9,5.1c0,0.1,0,0.1,0,0.1C70.9,154.6,65,159,58.3,159z"></path>
                    <path d="M58.3,159.8c-0.3,0-0.4-0.2-0.4-0.4v-6c0-0.3,0.2-0.4,0.4-0.4c0.2,0,0.4,0.2,0.4,0.4v6
					C58.7,159.7,58.5,159.8,58.3,159.8z"></path>
                    <path d="M61,159.6c-0.2,0-0.4-0.2-0.4-0.4l-1-5.9c-0.1-0.2,0.1-0.5,0.4-0.5c0.2-0.1,0.5,0.1,0.5,0.4l1,5.9
					C61.5,159.3,61.4,159.6,61,159.6C61,159.6,61,159.6,61,159.6z"></path>
                    <path d="M63.7,158.9c-0.2,0-0.3-0.1-0.4-0.3l-2.1-5.6c-0.1-0.2,0.1-0.5,0.3-0.5c0.2-0.1,0.5,0.1,0.5,0.3l2.1,5.6
					c0.1,0.2-0.1,0.5-0.3,0.5C63.8,158.8,63.8,158.9,63.7,158.9z"></path>
                    <path d="M66.3,157.7c-0.2,0-0.3-0.1-0.4-0.2l-3-5.2c-0.1-0.2-0.1-0.5,0.2-0.6c0.2-0.1,0.5-0.1,0.6,0.2l3,5.2
					c0.1,0.2,0.1,0.5-0.2,0.6C66.4,157.7,66.4,157.7,66.3,157.7z"></path>
                    <path d="M68.6,156.1c-0.1,0-0.3-0.1-0.3-0.2l-3.9-4.6c-0.2-0.2-0.1-0.5,0.1-0.6c0.2-0.2,0.5-0.1,0.6,0.1l3.9,4.6
					c0.2,0.2,0.1,0.5-0.1,0.6C68.8,156,68.7,156.1,68.6,156.1z"></path>
                    <path d="M70.5,154.1c-0.1,0-0.2-0.1-0.3-0.1l-4.6-3.9c-0.2-0.2-0.2-0.4-0.1-0.6c0.2-0.2,0.4-0.2,0.6-0.1l4.6,3.9
					c0.2,0.2,0.2,0.4,0.1,0.6C70.8,154,70.7,154.1,70.5,154.1z"></path>
                    <path d="M72.2,151.8c-0.1,0-0.2,0-0.2-0.1l-5.2-3c-0.2-0.1-0.3-0.4-0.2-0.6s0.4-0.3,0.6-0.2l5.2,3c0.2,0.1,0.3,0.4,0.2,0.6
					C72.5,151.7,72.3,151.8,72.2,151.8z"></path>
                    <path d="M73.3,149.2c-0.1,0-0.1,0-0.2,0l-5.6-2.1c-0.2-0.1-0.3-0.3-0.3-0.5c0.1-0.2,0.3-0.3,0.5-0.3l5.6,2.1
					c0.2,0.1,0.3,0.3,0.3,0.5C73.7,149.1,73.5,149.2,73.3,149.2z"></path>
                    <path d="M74.1,146.6L74.1,146.6l-6-1c-0.2-0.1-0.4-0.3-0.4-0.5c0.1-0.2,0.3-0.4,0.5-0.4l5.9,1c0.2,0.1,0.4,0.3,0.4,0.5
					C74.5,146.4,74.3,146.6,74.1,146.6z"></path>
                    <path d="M48.2,143.8h-6.1c-0.3,0-0.4-0.2-0.4-0.4s0.2-0.4,0.4-0.4h6.1c0.3,0,0.4,0.2,0.4,0.4S48.5,143.8,48.2,143.8z"></path>
                    <path d="M74.3,143.8h-6c-0.3,0-0.4-0.2-0.4-0.4s0.2-0.4,0.4-0.4h6c0.3,0,0.4,0.2,0.4,0.4S74.5,143.8,74.3,143.8z"></path>
                    <path d="M42.4,146.6c-0.2,0-0.4-0.2-0.4-0.4c-0.1-0.2,0.1-0.5,0.4-0.5l6-1c0.2-0.1,0.5,0.1,0.5,0.4c0.1,0.2-0.1,0.5-0.4,0.5
					L42.4,146.6C42.5,146.6,42.4,146.6,42.4,146.6z"></path>
                    <path d="M43.1,149.2c-0.2,0-0.3-0.1-0.4-0.3c-0.1-0.2,0.1-0.5,0.3-0.5l5.7-2.1c0.2-0.1,0.5,0.1,0.5,0.3c0.1,0.2-0.1,0.5-0.3,0.5
					l-5.7,2.1C43.2,149.2,43.2,149.2,43.1,149.2z"></path>
                    <path d="M44.3,151.8c-0.2,0-0.3-0.1-0.4-0.2c-0.1-0.2-0.1-0.5,0.2-0.6l5.3-3.1c0.2-0.1,0.5-0.1,0.6,0.2c0.1,0.2,0.1,0.5-0.2,0.6
					l-5.3,3.1C44.4,151.8,44.4,151.8,44.3,151.8z"></path>
                    <path d="M45.9,154.1c-0.1,0-0.3-0.1-0.3-0.2c-0.2-0.2-0.1-0.5,0.1-0.6l4.7-3.9c0.2-0.2,0.5-0.1,0.6,0.1c0.2,0.2,0.1,0.5-0.1,0.6
					l-4.7,3.9C46.1,154.1,46,154.1,45.9,154.1z"></path>
                    <path d="M47.9,156.1c-0.1,0-0.2-0.1-0.3-0.1c-0.2-0.2-0.2-0.4-0.1-0.6l3.9-4.7c0.2-0.2,0.4-0.2,0.6-0.1c0.2,0.2,0.2,0.4,0.1,0.6
					l-3.9,4.7C48.2,156,48,156.1,47.9,156.1z"></path>
                    <path d="M50.2,157.7c-0.1,0-0.2,0-0.2-0.1c-0.2-0.1-0.3-0.4-0.2-0.6l3.1-5.3c0.1-0.2,0.4-0.3,0.6-0.2c0.2,0.1,0.3,0.4,0.2,0.6
					l-3.1,5.3C50.5,157.6,50.4,157.7,50.2,157.7z"></path>
                    <path d="M52.7,158.9c-0.1,0-0.1,0-0.2,0c-0.2-0.1-0.3-0.3-0.3-0.5l2.1-5.7c0.1-0.2,0.3-0.3,0.5-0.3c0.2,0.1,0.3,0.3,0.3,0.5
					l-2.1,5.7C53.1,158.7,52.9,158.9,52.7,158.9z"></path>
                    <path d="M55.5,159.6L55.5,159.6c-0.3-0.1-0.4-0.3-0.4-0.5l1-6c0.1-0.2,0.3-0.4,0.5-0.4c0.2,0.1,0.4,0.3,0.4,0.5l-1,6
					C55.8,159.4,55.7,159.6,55.5,159.6z"></path>
                    <path d="M58.3,126.7c-0.3,0-0.4,0.2-0.4,0.4v6c0,0.3,0.2,0.4,0.4,0.4c0.2,0,0.4-0.2,0.4-0.4v-6
					C58.7,126.9,58.5,126.7,58.3,126.7z"></path>
                    <path d="M61,127c-0.2,0-0.4,0.2-0.4,0.4l-1,5.9c-0.1,0.2,0.1,0.5,0.4,0.5c0.2,0.1,0.5-0.1,0.5-0.4l1-5.9
					C61.5,127.3,61.4,127,61,127C61,127,61,127,61,127z"></path>
                    <path d="M63.7,127.7c-0.2,0-0.3,0.1-0.4,0.3l-2.1,5.6c-0.1,0.2,0.1,0.5,0.3,0.5c0.2,0.1,0.5-0.1,0.5-0.3l2.1-5.6
					c0.1-0.2-0.1-0.5-0.3-0.5C63.8,127.7,63.8,127.7,63.7,127.7z"></path>
                    <path d="M66.3,128.9c-0.2,0-0.3,0.1-0.4,0.2l-3,5.2c-0.1,0.2-0.1,0.5,0.2,0.6c0.2,0.1,0.5,0.1,0.6-0.2l3-5.2
					c0.1-0.2,0.1-0.5-0.2-0.6C66.4,128.9,66.4,128.9,66.3,128.9z"></path>
                    <path d="M68.6,130.5c-0.1,0-0.3,0.1-0.3,0.2l-3.9,4.6c-0.2,0.2-0.1,0.5,0.1,0.6c0.2,0.2,0.5,0.1,0.6-0.1l3.9-4.6
					c0.2-0.2,0.1-0.5-0.1-0.6C68.8,130.5,68.7,130.5,68.6,130.5z"></path>
                    <path d="M72.2,134.8c-0.1,0-0.2,0-0.2,0.1l-5.2,3c-0.2,0.1-0.3,0.4-0.2,0.6s0.4,0.3,0.6,0.2l5.2-3c0.2-0.1,0.3-0.4,0.2-0.6
					C72.5,134.8,72.3,134.8,72.2,134.8z"></path>
                    <path d="M70.3,132.6c-0.1,0-0.2,0.1-0.2,0.1l-4.5,4c-0.2,0.2-0.2,0.4-0.1,0.7c0.2,0.2,0.4,0.2,0.7,0.1l4.5-4
					c0.2-0.2,0.2-0.4,0.1-0.7C70.6,132.6,70.4,132.6,70.3,132.6z"></path>
                    <path d="M73.3,137.3c-0.1,0-0.1,0-0.2,0l-5.6,2.1c-0.2,0.1-0.3,0.3-0.3,0.5c0.1,0.2,0.3,0.3,0.5,0.3l5.6-2.1
					c0.2-0.1,0.3-0.3,0.3-0.5C73.7,137.4,73.5,137.3,73.3,137.3z"></path>
                    <path d="M74.1,140L74.1,140l-6,1c-0.2,0.1-0.4,0.3-0.4,0.5c0.1,0.2,0.3,0.4,0.5,0.4l5.9-1c0.2-0.1,0.4-0.3,0.4-0.5
					C74.5,140.1,74.3,140,74.1,140z"></path>
                    <path d="M42.4,140c-0.2,0-0.4,0.2-0.4,0.4c-0.1,0.2,0.1,0.5,0.4,0.5l6,1c0.2,0.1,0.5-0.1,0.5-0.4c0.1-0.2-0.1-0.5-0.4-0.5
					L42.4,140C42.5,140,42.4,140,42.4,140z"></path>
                    <path d="M43.1,137.3c-0.2,0-0.3,0.1-0.4,0.3c-0.1,0.2,0.1,0.5,0.3,0.5l5.7,2.1c0.2,0.1,0.5-0.1,0.5-0.3c0.1-0.2-0.1-0.5-0.3-0.5
					l-5.7-2.1C43.2,137.3,43.2,137.3,43.1,137.3z"></path>
                    <path d="M44.3,134.8c-0.2,0-0.3,0.1-0.4,0.2c-0.1,0.2-0.1,0.5,0.2,0.6l5.3,3.1c0.2,0.1,0.5,0.1,0.6-0.2c0.1-0.2,0.1-0.5-0.2-0.6
					l-5.3-3.1C44.4,134.8,44.4,134.8,44.3,134.8z"></path>
                    <path d="M45.9,132.5c-0.1,0-0.3,0.1-0.3,0.2c-0.2,0.2-0.1,0.5,0.1,0.6l4.7,3.9c0.2,0.2,0.5,0.1,0.6-0.1c0.2-0.2,0.1-0.5-0.1-0.6
					l-4.7-3.9C46.1,132.5,46,132.5,45.9,132.5z"></path>
                    <path d="M47.9,130.5c-0.1,0-0.2,0.1-0.3,0.1c-0.2,0.2-0.2,0.4-0.1,0.6l3.9,4.7c0.2,0.2,0.4,0.2,0.6,0.1c0.2-0.2,0.2-0.4,0.1-0.6
					l-3.9-4.7C48.2,130.6,48,130.5,47.9,130.5z"></path>
                    <path d="M50.2,128.9c-0.1,0-0.2,0-0.2,0.1c-0.2,0.1-0.3,0.4-0.2,0.6l3.1,5.3c0.1,0.2,0.4,0.3,0.6,0.2c0.2-0.1,0.3-0.4,0.2-0.6
					l-3.1-5.3C50.5,129,50.4,128.9,50.2,128.9z"></path>
                    <path d="M52.7,127.7c-0.1,0-0.1,0-0.2,0c-0.2,0.1-0.3,0.3-0.3,0.5l2.1,5.7c0.1,0.2,0.3,0.3,0.5,0.3c0.2-0.1,0.3-0.3,0.3-0.5
					l-2.1-5.7C53.1,127.8,52.9,127.7,52.7,127.7z"></path>
                    <path d="M55.5,127L55.5,127c-0.3,0.1-0.4,0.3-0.4,0.5l1,6c0.1,0.2,0.3,0.4,0.5,0.4c0.2-0.1,0.4-0.3,0.4-0.5l-1-6
					C55.8,127.1,55.7,127,55.5,127z"></path>
                </g>
            </g>
            <path fill="#E2E2E2" d="M18.4,149.2c1.5,0.6,3.1,1.1,4.6,1.7c3.1,2.8,17.2,14.8,36.6,13.7c3.2-0.2,14.2-0.8,23.5-7.4
			c2.8-2,10.4-8.1,10.4-8.1l7.1,0.2c0,0-8.3,31.4-41.6,31.4c-3.2,0-11.7,0-20.8-5.1C23.6,167.2,19.3,152.5,18.4,149.2z"></path>
            
            <g>
                <path d="M21.1,148.7c-0.1,0-0.1,0-0.2,0c-0.2-0.1-0.4-0.4-0.3-0.6c0.1-0.2,8.7-23.6,36.7-23.6s36.5,23.3,36.5,23.6
				c0.1,0.2,0,0.5-0.3,0.6c-0.2,0.1-0.5,0-0.6-0.3c-0.1-0.2-8.4-23-35.7-23s-35.7,22.7-35.8,23C21.4,148.6,21.2,148.7,21.1,148.7z"></path>
                <path d="M21.1,148.9c-0.1,0-0.2,0-0.2,0c-0.4-0.1-0.6-0.5-0.4-0.9c0.1-0.2,8.8-23.7,36.9-23.7s36.7,23.5,36.8,23.8
				c0.1,0.4-0.1,0.8-0.4,0.9c-0.4,0.1-0.8-0.1-0.9-0.4c-0.1-0.2-8.4-22.8-35.4-22.8c-27.1,0-35.5,22.6-35.5,22.8
				C21.6,148.7,21.4,148.9,21.1,148.9z M57.3,124.7c-27.8,0-36.3,23.2-36.4,23.4c0,0.1,0,0.2,0.1,0.3c0.1,0,0.2,0,0.3-0.1
				c0.1-0.2,8.6-23.1,36-23.1s35.8,22.9,35.9,23.1c0,0.1,0.2,0.2,0.3,0.1c0.1,0,0.2-0.2,0.1-0.3C93.5,147.9,85,124.7,57.3,124.7z"></path>
            </g>
            <path fill="#E2E2E2" d="M14.4,159.2c0-0.7,0.2-1.9,0.6-3.3c4.6-16,32.7-21,43.7-20.8c9.4,0.2,17.8,3.3,17.8,3.3s0.4,0.1,0.8,0.3
			c4.1,1.6,11.6,5.2,24.1,14.5c0.5-3.3,2.7-18.9-7.3-31.3c-10.8-13.4-28-13.4-36.8-13.4c-9.2,0-25.1-0.1-35.9,12.3
			C8,136.1,13.9,157.3,14.4,159.2z"></path>
            <g>
                <path d="M20.7,138.6c-0.1,0-0.1,0-0.2,0c-0.2-0.1-0.3-0.4-0.2-0.6c0.1-0.2,9.2-18.8,37.1-18.8s36.3,18.6,36.4,18.8
				c0.1,0.2,0,0.5-0.2,0.6s-0.5,0-0.6-0.2s-8.2-18.2-35.5-18.2s-36.2,18.1-36.3,18.3C21.1,138.5,20.9,138.6,20.7,138.6z"></path>
                <path d="M93.4,138.9c-0.3,0-0.5-0.2-0.7-0.4c-0.1-0.2-8.2-18.1-35.3-18.1s-36,17.9-36,18.1c-0.2,0.3-0.6,0.5-1,0.3
				c-0.2-0.1-0.3-0.2-0.4-0.4s-0.1-0.4,0-0.6c0.1-0.2,9.3-18.9,37.4-18.9s36.5,18.8,36.6,19s0.1,0.4,0,0.6c-0.1,0.2-0.2,0.3-0.4,0.4
				C93.6,138.8,93.5,138.9,93.4,138.9z M57.4,119.8c27.4,0,35.7,18.2,35.7,18.4c0,0.1,0.1,0.1,0.1,0.1c0.1,0,0.1,0,0.2,0
				s0.1-0.1,0.1-0.1c0-0.1,0-0.1,0-0.2c-0.1-0.2-8.4-18.7-36.1-18.7S20.6,137.8,20.5,138c0,0.1,0,0.1,0,0.2c0,0.1,0.1,0.1,0.1,0.1
				c0.1,0.1,0.2,0,0.3-0.1C21,138,30,119.8,57.4,119.8z"></path>
            </g>
            <g>
                <path d="M57.3,169.9c-11.3,0-20.8-3-28.2-9c-0.2-0.2-0.2-0.5-0.1-0.7c0.2-0.2,0.5-0.2,0.7-0.1c7.2,5.8,16.5,8.8,27.6,8.8
				s20.4-3,27.5-8.8c0.2-0.2,0.5-0.1,0.7,0.1c0.2,0.2,0.1,0.5-0.1,0.7C78,166.9,68.6,169.9,57.3,169.9z"></path>
                <path d="M57.3,170.2c-11.4,0-20.9-3-28.3-9c-0.3-0.3-0.4-0.7-0.1-1c0.3-0.3,0.7-0.4,1-0.1c7.2,5.8,16.4,8.7,27.4,8.7
				s20.2-2.9,27.4-8.7c0.3-0.3,0.8-0.2,1,0.1c0.3,0.3,0.2,0.8-0.1,1C78.2,167.1,68.6,170.2,57.3,170.2z M29.4,160.3
				c-0.1,0-0.1,0-0.2,0.1c-0.1,0.1-0.1,0.2,0,0.3c7.3,5.9,16.8,8.9,28,8.9c11.3,0,20.7-3,28-8.9c0.1-0.1,0.1-0.2,0-0.3
				s-0.2-0.1-0.3,0c-7.2,5.9-16.5,8.8-27.7,8.8s-20.5-3-27.8-8.8C29.5,160.4,29.4,160.3,29.4,160.3z"></path>
            </g>
            <g>
                <path d="M21.1,148.7c-0.1,0-0.2,0-0.3-0.1c-0.2-0.2-0.2-0.5,0-0.7c0.1-0.1,12.2-13.2,36.5-13.2s36.4,13,36.5,13.2
				c0.2,0.2,0.2,0.5,0,0.7s-0.5,0.2-0.7,0c-0.1-0.1-11.9-12.9-35.8-12.9s-35.7,12.7-35.8,12.9C21.3,148.6,21.2,148.7,21.1,148.7z"></path>
                <path d="M21.1,148.9c-0.2,0-0.4-0.1-0.5-0.2c-0.3-0.3-0.3-0.7-0.1-1c0.1-0.1,12.3-13.3,36.7-13.3s36.6,13.1,36.7,13.3
				c0.3,0.3,0.2,0.8-0.1,1c-0.3,0.3-0.8,0.2-1-0.1c-0.1-0.1-11.9-12.8-35.6-12.8c-23.8,0-35.5,12.6-35.6,12.8
				C21.5,148.9,21.3,148.9,21.1,148.9z M57.2,135C33,135,21,148,20.9,148.1c-0.1,0.1-0.1,0.2,0,0.3s0.2,0.1,0.3,0
				c0.1-0.1,12-12.9,36-12.9c23.9,0,35.9,12.8,36,12.9c0.1,0.1,0.2,0.1,0.3,0c0.1-0.1,0.1-0.2,0-0.3C93.4,147.9,81.4,135,57.2,135z"></path>
            </g>
            <g>
                <path d="M93.3,148.7c-0.1,0-0.3-0.1-0.4-0.2c-0.1-0.1-11.6-16.3-35.5-16.3s-35.9,16.1-36,16.2c-0.2,0.2-0.5,0.2-0.7,0.1
				c-0.2-0.2-0.2-0.5-0.1-0.7s12.4-16.6,36.8-16.6s36.1,16.5,36.2,16.7c0.2,0.2,0.1,0.5-0.1,0.7C93.5,148.7,93.4,148.7,93.3,148.7z"></path>
                <path d="M93.3,148.9c-0.2,0-0.4-0.1-0.6-0.3c-1.2-1.7-12.5-16.2-35.3-16.2s-34.5,14.5-35.8,16.1c-0.3,0.3-0.7,0.4-1,0.1
				c-0.2-0.1-0.2-0.3-0.3-0.5c0-0.2,0-0.4,0.2-0.5c1.3-1.7,13.5-16.7,36.9-16.7c23.5,0,35.2,15.1,36.4,16.8c0.3,0.3,0.2,0.8-0.1,1
				C93.6,148.9,93.5,148.9,93.3,148.9z M57.4,131.9c23,0,34.5,14.7,35.7,16.4c0.1,0.1,0.2,0.1,0.3,0.1c0.1-0.1,0.1-0.2,0-0.3
				c-1.3-1.7-12.8-16.6-36-16.6S22.2,146.3,20.9,148c-0.1,0.1-0.1,0.1-0.1,0.2c0,0.1,0,0.1,0.1,0.1c0.1,0.1,0.2,0.1,0.3,0
				C22.5,146.6,34.4,131.9,57.4,131.9z"></path>
            </g>
            <g>
                <path d="M57.2,164.8c-24.4,0-36.4-16.2-36.5-16.4c-0.2-0.2-0.1-0.5,0.1-0.7s0.5-0.1,0.7,0.1c0.1,0.2,11.9,16,35.8,16
				s35.7-15.8,35.8-16c0.2-0.2,0.5-0.3,0.7-0.1s0.3,0.5,0.1,0.7C93.6,148.7,81.6,164.8,57.2,164.8z"></path>
                <path d="M57.2,165.1c-24.4,0-36.6-16.3-36.7-16.5c-0.2-0.3-0.2-0.8,0.2-1c0.2-0.1,0.3-0.2,0.5-0.1c0.2,0,0.4,0.1,0.5,0.3
				s11.8,15.9,35.6,15.9s35.5-15.7,35.6-15.9c0.1-0.2,0.3-0.3,0.5-0.3s0.4,0,0.5,0.1c0.2,0.1,0.3,0.3,0.3,0.5s0,0.4-0.1,0.5
				C93.8,148.8,81.7,165.1,57.2,165.1z M21.1,148H21c-0.1,0.1-0.1,0.2,0,0.3c0,0.2,12,16.3,36.2,16.3s36.2-16.1,36.3-16.3
				c0.1-0.1,0.1-0.2,0-0.3c0,0-0.1,0-0.2,0s-0.1,0-0.1,0.1c-0.1,0.2-12,16.1-36,16.1s-35.9-15.9-36-16.1C21.2,148,21.1,148,21.1,148
				L21.1,148z"></path>
            </g>
            <g>
                <path d="M21,148.7c-0.1,0-0.2,0-0.2-0.1l-4.4-2.5c-0.2-0.1-0.3-0.4-0.2-0.6c0.1-0.2,0.4-0.3,0.6-0.2l4.4,2.5
				c0.2,0.1,0.3,0.4,0.2,0.6C21.3,148.6,21.1,148.7,21,148.7z"></path>
                <path d="M21,148.9c-0.1,0-0.2,0-0.4-0.1l-4.4-2.5c-0.2-0.1-0.3-0.3-0.3-0.4c-0.1-0.2,0-0.4,0.1-0.5c0.2-0.3,0.6-0.5,1-0.3
				l4.4,2.5c0.2,0.1,0.3,0.3,0.3,0.4c0.1,0.2,0,0.4-0.1,0.5C21.5,148.8,21.2,148.9,21,148.9z M16.6,145.5c-0.1,0-0.2,0-0.2,0.1
				s0,0.1,0,0.2s0.1,0.1,0.1,0.1l4.4,2.5c0.1,0.1,0.2,0,0.3-0.1c0-0.1,0-0.1,0-0.2c0-0.1-0.1-0.1-0.1-0.1L16.6,145.5
				C16.6,145.5,16.6,145.5,16.6,145.5z"></path>
            </g>
            <g>
                <path d="M16.6,151.2c-0.2,0-0.3-0.1-0.4-0.2c-0.1-0.2-0.1-0.5,0.2-0.6l2.8-1.6h-4.5c-0.3,0-0.5-0.2-0.5-0.5s0.2-0.5,0.5-0.5H21
				c0.2,0,0.4,0.1,0.5,0.4c0.1,0.2,0,0.4-0.2,0.5l-4.4,2.5C16.7,151.2,16.7,151.2,16.6,151.2z"></path>
                <path d="M16.6,151.4c-0.3,0-0.5-0.1-0.6-0.4c-0.1-0.2-0.1-0.4-0.1-0.6c0.1-0.2,0.2-0.3,0.3-0.4l2-1.1h-3.5
				c-0.4,0-0.7-0.3-0.7-0.7s0.3-0.7,0.7-0.7H21c0.3,0,0.6,0.2,0.7,0.5s-0.1,0.7-0.3,0.8l-4.4,2.5C16.8,151.4,16.7,151.4,16.6,151.4z
				 M14.7,148c-0.1,0-0.2,0.1-0.2,0.2s0.1,0.2,0.2,0.2h4.5c0.1,0,0.2,0.1,0.2,0.2c0,0.1,0,0.2-0.1,0.3l-2.8,1.6
				c-0.1,0-0.1,0.1-0.1,0.1s0,0.1,0,0.2c0.1,0.1,0.2,0.1,0.3,0.1l4.4-2.5c0.1-0.1,0.1-0.2,0.1-0.3s-0.1-0.2-0.2-0.2L14.7,148
				L14.7,148z"></path>
            </g>
            <g display="none">
                <path display="inline" d="M93.4,148.7c-0.2,0-0.3-0.1-0.4-0.2c-0.1-0.2-0.1-0.5,0.2-0.6l4.4-2.5c0.2-0.1,0.5-0.1,0.6,0.2
				c0.1,0.2,0.1,0.5-0.2,0.6l-4.4,2.5C93.5,148.7,93.5,148.7,93.4,148.7z"></path>
                <path display="inline" d="M93.4,148.9c-0.3,0-0.5-0.1-0.6-0.4c-0.1-0.2-0.1-0.4-0.1-0.6c0.1-0.2,0.2-0.3,0.3-0.4l4.4-2.5
				c0.2-0.1,0.4-0.1,0.5-0.1c0.2,0.1,0.3,0.2,0.4,0.3c0.1,0.2,0.1,0.4,0.1,0.5c-0.1,0.2-0.2,0.3-0.3,0.4l-4.4,2.5
				C93.6,148.9,93.5,148.9,93.4,148.9z M97.8,145.5L97.8,145.5l-4.5,2.5c-0.1,0-0.1,0.1-0.1,0.1c0,0.1,0,0.1,0,0.2
				c0.1,0.1,0.2,0.1,0.3,0.1l4.4-2.5c0.1,0,0.1-0.1,0.1-0.1s0-0.1,0-0.2C97.9,145.6,97.9,145.5,97.8,145.5L97.8,145.5z"></path>
            </g>
            <g>
                <path d="M97.8,151.2c-0.1,0-0.2,0-0.2-0.1l-4.4-2.5c-0.2-0.1-0.3-0.3-0.2-0.5c0.1-0.2,0.2-0.4,0.5-0.4h6.3c0.3,0,0.5,0.2,0.5,0.5
				s-0.2,0.5-0.5,0.5h-4.5l2.8,1.6c0.2,0.1,0.3,0.4,0.2,0.6C98.1,151.1,97.9,151.2,97.8,151.2z"></path>
                <path d="M97.8,151.4c-0.1,0-0.2,0-0.4-0.1l-4.4-2.5c-0.3-0.2-0.4-0.5-0.3-0.8s0.4-0.5,0.7-0.5h6.3c0.4,0,0.7,0.3,0.7,0.7
				s-0.3,0.7-0.7,0.7h-3.6l2,1.1c0.2,0.1,0.3,0.3,0.3,0.4c0.1,0.2,0,0.4-0.1,0.5C98.3,151.3,98,151.4,97.8,151.4z M93.4,148
				c-0.1,0-0.2,0.1-0.2,0.2c0,0.1,0,0.2,0.1,0.3l4.4,2.5c0.1,0.1,0.2,0,0.3-0.1c0-0.1,0-0.1,0-0.2s-0.1-0.1-0.1-0.1l-2.8-1.6
				c-0.1-0.1-0.1-0.2-0.1-0.3s0.1-0.2,0.2-0.2h4.5c0.1,0,0.2-0.1,0.2-0.2s-0.1-0.2-0.2-0.2L93.4,148L93.4,148z"></path>
            </g>
        </g>
    </g>
    <path fill="#E2E2E2" d="M88.3,172"></path>
    <path fill="#E2E2E2" d="M30.6,167.3"></path>
</svg>