<svg xmlns="http://www.w3.org/2000/svg" xmlns:xlink="http://www.w3.org/1999/xlink" version="1.1" id="Режим_изоляции" x="0px" y="0px" viewBox="0 0 82.7 50" enable-background="new 0 0 82.7 50" xml:space="preserve">
<path fill="#D4913F" d="M44.2,0.5c0,0-12-0.3-22.3,2.8s-17.5,8.3-20.2,15s-0.3,16.9,9.7,23.1s20.4,8.5,33.8,8s22.7-4.8,28.7-9.8  c6.1-4.9,8.2-10.7,8.2-15.5S79.8,10.9,69.7,6.7S50.2,1,44.2,0.5z"/>
<path fill="#FFC259" d="M41,4.6c0,0,11.5-0.6,20.1,3.3s14.8,6.3,14.4,13.8S63.7,34.5,49.7,36.2c-14.1,1.7-26.6-1.2-35.1-5.3  S6.5,19.4,8.2,17S14.3,5.8,41,4.6z"/>
<g>
	<g>
		<path d="M41.4,37.5C22.1,37.5,6.5,30,6.5,20.8S22.1,4.1,41.4,4.1s34.9,7.5,34.9,16.7S60.6,37.5,41.4,37.5z M41.4,5.4    c-18.5,0-33.6,6.9-33.6,15.4s15.1,15.4,33.6,15.4S75,29.3,75,20.8S59.9,5.4,41.4,5.4z"/>
		<path d="M41.4,50C17,50,0,39.4,0,24.1C0,9.7,16.6,0,41.4,0c24.7,0,41.4,9.7,41.4,24.1C82.7,38.9,64.9,50,41.4,50z M41.4,1.3    c-23.6,0-40.1,9.4-40.1,22.8c0,14.5,16.5,24.6,40.1,24.6c22.5,0,40.1-10.8,40.1-24.6C81.4,10.5,65.3,1.3,41.4,1.3z"/>
		<path d="M9.5,33C9.5,33,9.5,33,9.5,33c-0.4,0-0.7-0.4-0.6-0.7c0.3-2.6,1.6-3.9,1.6-4c0.3-0.3,0.7-0.3,0.9,0c0.3,0.3,0.3,0.7,0,0.9    c0,0-1,1.1-1.3,3.2C10.1,32.8,9.9,33,9.5,33z"/>
		<path d="M15.3,44.7c-0.3,0-0.6-0.3-0.6-0.6c0-0.1-0.1-3,0-4.9c0-0.4,0.3-0.6,0.7-0.6c0.4,0,0.6,0.3,0.6,0.7c-0.1,1.9,0,4.7,0,4.8    C15.9,44.4,15.6,44.7,15.3,44.7C15.3,44.7,15.3,44.7,15.3,44.7z"/>
		<path d="M32.4,48.9c-0.3,0-0.6-0.3-0.6-0.6c0-0.1-0.1-3,0-4.9c0-0.4,0.3-0.6,0.7-0.6c0.4,0,0.6,0.3,0.6,0.7c-0.1,1.9,0,4.7,0,4.8    C33.1,48.5,32.8,48.8,32.4,48.9C32.4,48.9,32.4,48.9,32.4,48.9z"/>
		<path d="M49.3,48.2c-0.3,0-0.6-0.3-0.6-0.6c0-0.1-0.1-3,0-4.9c0-0.4,0.3-0.6,0.7-0.6c0.4,0,0.6,0.3,0.6,0.7c-0.1,1.9,0,4.7,0,4.8    C50,47.9,49.7,48.2,49.3,48.2C49.4,48.2,49.3,48.2,49.3,48.2z"/>
		<path d="M24.2,39.9c-0.4,0-0.7-0.3-0.7-0.6c0-1.3,0.4-4.3,0.4-4.4c0-0.4,0.4-0.6,0.7-0.6c0.4,0,0.6,0.4,0.6,0.7c0,0-0.4,3-0.4,4.2    C24.9,39.6,24.6,39.9,24.2,39.9z"/>
		<path d="M72.7,34.1c-0.3,0-0.6-0.2-0.6-0.6c-0.2-2.1-1.2-3.2-1.3-3.2c-0.2-0.3-0.2-0.7,0-0.9s0.7-0.2,0.9,0c0.1,0.1,1.3,1.4,1.6,4    C73.4,33.8,73.1,34.1,72.7,34.1C72.7,34.1,72.7,34.1,72.7,34.1z"/>
		<path d="M66.2,44.2C66.2,44.2,66.2,44.2,66.2,44.2c-0.4,0-0.7-0.3-0.6-0.7c0,0,0.1-2.9,0-4.8c0-0.4,0.3-0.7,0.6-0.7    c0.3,0,0.7,0.3,0.7,0.6c0.1,1.9,0,4.8,0,4.9C66.9,43.9,66.6,44.2,66.2,44.2z"/>
		<path d="M57.2,40.3c-0.4,0-0.7-0.3-0.7-0.6c0-1.2-0.4-4.2-0.4-4.2c0-0.4,0.2-0.7,0.6-0.7c0.4,0,0.7,0.2,0.7,0.6    c0,0.1,0.4,3.1,0.4,4.4C57.9,40,57.6,40.3,57.2,40.3z"/>
		<path d="M41.4,41.8c-0.4,0-0.7-0.3-0.7-0.6v-4.3c0-0.4,0.3-0.6,0.7-0.6s0.7,0.3,0.7,0.6v4.3C42,41.5,41.7,41.8,41.4,41.8z"/>
		<path d="M12.9,30.1c-0.3,0-0.5-0.2-0.6-0.4c-0.1-0.3,0.1-0.7,0.4-0.8l55-18.3c0.3-0.1,0.7,0.1,0.8,0.4c0.1,0.3-0.1,0.7-0.4,0.8    l-55,18.3C13.1,30.1,13,30.1,12.9,30.1z"/>
		<path d="M69.3,30.1c-0.1,0-0.1,0-0.2,0l-55-18.3c-0.3-0.1-0.5-0.5-0.4-0.8c0.1-0.3,0.5-0.5,0.8-0.4l55,18.3    c0.3,0.1,0.5,0.5,0.4,0.8C69.8,30,69.5,30.1,69.3,30.1z"/>
		<path d="M41.5,37.1C41.5,37.1,41.5,37.1,41.5,37.1c-0.4,0-0.7-0.3-0.7-0.7L41,5c0-0.4,0.3-0.6,0.7-0.6c0,0,0,0,0,0    c0.4,0,0.6,0.3,0.6,0.7l-0.2,31.5C42.1,36.8,41.8,37.1,41.5,37.1z"/>
		<g>
			<ellipse fill="#F56C65" cx="51.1" cy="11.3" rx="2.8" ry="1.4"/>
			<path d="M51.1,13.3c-2,0-3.5-0.8-3.5-2s1.5-2,3.5-2s3.5,0.8,3.5,2S53.1,13.3,51.1,13.3z M51.1,10.6c-1.4,0-2.2,0.5-2.2,0.7     s0.8,0.7,2.2,0.7s2.2-0.5,2.2-0.7S52.5,10.6,51.1,10.6z"/>
		</g>
		<g>
			<ellipse fill="#F56C65" cx="32.2" cy="10.8" rx="2.8" ry="1.4"/>
			<path d="M32.2,12.8c-2,0-3.5-0.8-3.5-2s1.5-2,3.5-2s3.5,0.8,3.5,2S34.3,12.8,32.2,12.8z M32.2,10.1c-1.4,0-2.2,0.5-2.2,0.7     s0.8,0.7,2.2,0.7s2.2-0.5,2.2-0.7S33.6,10.1,32.2,10.1z"/>
		</g>
		<g>
			<ellipse fill="#F56C65" cx="17.4" cy="19.7" rx="2.8" ry="1.4"/>
			<path d="M17.4,21.7c-2,0-3.5-0.8-3.5-2c0-1.2,1.5-2,3.5-2s3.5,0.8,3.5,2C20.8,20.9,19.4,21.7,17.4,21.7z M17.4,19     c-1.4,0-2.2,0.5-2.2,0.7c0,0.2,0.8,0.7,2.2,0.7s2.2-0.5,2.2-0.7C19.5,19.6,18.8,19,17.4,19z"/>
		</g>
		<g>
			<ellipse fill="#F56C65" cx="29.9" cy="30.3" rx="3.1" ry="1.5"/>
			<path d="M29.9,32.4c-2.1,0-3.7-0.9-3.7-2.1s1.6-2.1,3.7-2.1c2.1,0,3.7,0.9,3.7,2.1S32,32.4,29.9,32.4z M29.9,29.5     c-1.6,0-2.4,0.6-2.4,0.8s0.8,0.8,2.4,0.8s2.4-0.6,2.4-0.8S31.5,29.5,29.9,29.5z"/>
		</g>
		<g>
			<ellipse fill="#F56C65" cx="51.8" cy="30.1" rx="3.1" ry="1.5"/>
			<path d="M51.8,32.2c-2.1,0-3.7-0.9-3.7-2.1s1.6-2.1,3.7-2.1c2.1,0,3.7,0.9,3.7,2.1S53.9,32.2,51.8,32.2z M51.8,29.3     c-1.6,0-2.4,0.6-2.4,0.8s0.8,0.8,2.4,0.8s2.4-0.6,2.4-0.8S53.4,29.3,51.8,29.3z"/>
		</g>
		<g>
			<ellipse fill="#F56C65" cx="64.4" cy="20.3" rx="2.9" ry="1.4"/>
			<path d="M64.4,22.4c-2.1,0-3.6-0.9-3.6-2c0-1.2,1.5-2,3.6-2s3.6,0.9,3.6,2C68,21.5,66.5,22.4,64.4,22.4z M64.4,19.6     c-1.5,0-2.3,0.6-2.3,0.7s0.8,0.7,2.3,0.7c1.5,0,2.3-0.6,2.3-0.7S65.9,19.6,64.4,19.6z"/>
		</g>
	</g>
</g>
</svg>