<svg width="91" height="56" viewBox="0 0 91 56" fill="none" xmlns="http://www.w3.org/2000/svg">
<path d="M60.5498 48.15C60.5498 47.15 60.3498 46.25 60.0498 45.35C63.2498 44.55 65.5498 41.65 65.5498 38.15C65.5498 37.15 65.3498 36.2501 65.0498 35.3501C68.2498 34.5501 70.5498 31.65 70.5498 28.15C70.5498 27.25 70.3498 26.45 70.1498 25.65H83.0498C87.1498 25.65 90.5498 22.25 90.5498 18.15C90.5498 14.05 87.1498 10.65 83.0498 10.65L56.9498 10.65C57.2498 10.25 57.5498 9.75005 57.7498 9.25005C58.1498 8.45005 58.3498 7.55005 58.3498 6.55005C58.3498 3.25005 55.6498 0.550049 52.3498 0.550049L32.9498 0.550049C27.5498 0.550049 22.2498 2.45005 18.0498 5.95005L14.5498 8.85005C11.2498 11.5501 7.14981 13.0501 2.84981 13.0501C1.44981 13.0501 0.349808 14.1501 0.349808 15.5501V48.05C0.349808 49.45 1.44981 50.55 2.84981 50.55H4.7498C11.5498 50.55 18.4498 51.35 25.0498 53.05C31.6498 54.75 38.7498 55.65 45.5498 55.65H53.0498C57.1498 55.65 60.5498 52.25 60.5498 48.15ZM45.5498 50.65C39.1498 50.65 32.6498 49.85 26.4498 48.25C19.6498 46.55 12.5498 45.75 5.5498 45.65V18.0501C10.0498 17.5501 14.3498 15.7501 17.9498 12.85L21.4498 9.95005C24.7498 7.25005 28.8498 5.75005 33.1498 5.75005L52.4498 5.75005C53.2498 5.75005 53.5498 6.55005 53.3498 7.15005C52.2498 9.35005 49.9498 10.75 47.4498 10.75L33.0498 10.75C31.6498 10.75 30.5498 11.85 30.5498 13.25C30.5498 14.65 31.6498 15.75 33.0498 15.75L83.0498 15.75C84.4498 15.75 85.5498 16.85 85.5498 18.25C85.5498 19.65 84.4498 20.75 83.0498 20.75L45.5498 20.75C44.1498 20.75 43.0498 21.85 43.0498 23.25C43.0498 24.65 44.1498 25.65 45.5498 25.65L63.0498 25.65C64.4498 25.65 65.5498 26.75 65.5498 28.15C65.5498 29.55 64.4498 30.65 63.0498 30.65L45.5498 30.65C44.1498 30.65 43.0498 31.75 43.0498 33.15C43.0498 34.55 44.1498 35.65 45.5498 35.65H58.0498C59.4498 35.65 60.5498 36.75 60.5498 38.15C60.5498 39.55 59.4498 40.65 58.0498 40.65H43.0498C41.6498 40.65 40.5498 41.75 40.5498 43.15C40.5498 44.55 41.6498 45.65 43.0498 45.65H53.0498C54.4498 45.65 55.5498 46.75 55.5498 48.15C55.5498 49.55 54.4498 50.65 53.0498 50.65H45.5498Z" fill="#FEFEFE"/>
</svg>
