<svg width="46" height="78" fill="none" xmlns="http://www.w3.org/2000/svg"><path d="M10.09 35.393h-.006a.797.797 0 01-.794-.803l.14-23.586c0-2.796 2.343-5.076 5.224-5.076 2.881 0 5.225 2.279 5.225 5.08a.799.799 0 01-1.597 0c0-1.92-1.627-3.483-3.627-3.483-2 0-3.627 1.563-3.627 3.483l-.139 23.591a.801.801 0 01-.8.794h.001z" fill="#FDFDFD"/><path d="M19.136 35.413a.798.798 0 01-.798-.798l-.02-29.358c0-2.802 2.36-5.081 5.26-5.081 2.901 0 5.262 2.279 5.262 5.081l.016 2.04a.802.802 0 01-.793.806c-.436-.039-.803-.353-.806-.793l-.016-2.046c0-1.927-1.644-3.49-3.663-3.49s-3.663 1.563-3.663 3.483l.02 29.358a.796.796 0 01-.799.798z" fill="#FDFDFD"/><path d="M36.782 37.269h-.006a.799.799 0 01-.793-.804l.183-29.006c0-1.916-1.639-3.479-3.655-3.479-2.018 0-3.656 1.563-3.656 3.483l-.172 26.538c-.004.441-.396.812-.806.793a.798.798 0 01-.793-.804l.172-26.532c0-2.797 2.356-5.076 5.255-5.076 2.897 0 5.254 2.279 5.254 5.081l-.184 29.012a.8.8 0 01-.799.794z" fill="#FDFDFD"/><path d="M24.104 77.636c-9.544 0-17.443-5.719-20.614-14.922a1.01 1.01 0 01-.029-.108c-.882-2.542-1.567-6.973-2.148-13.879C.469 38.706.592 35.116 2.987 33.603c1.332-.841 4.245-1.756 6.382-.63.981.517 2.172 1.676 2.272 4.267.156 4.065.077 7.993.027 9.656 3.121.095 13.601 1.245 14.315 12.302l.001 2.114a.8.8 0 11-1.6 0V59.25c-.304-4.712-2.646-7.976-6.958-9.646-3.288-1.274-6.509-1.116-6.542-1.115a.768.768 0 01-.604-.228.8.8 0 01-.237-.603c.002-.051.203-5.087 0-10.357-.056-1.469-.534-2.449-1.42-2.915-1.446-.762-3.71-.111-4.785.567-1.535.97-1.745 4.029-.935 13.641.584 6.943 1.292 11.442 2.162 13.755a.722.722 0 01.04.146c3.008 8.363 10.26 13.543 18.998 13.543 11.27 0 20.096-8.98 20.096-20.446l.193-34.341c0-1.917-1.625-3.479-3.624-3.479-2.114 0-3.06 1.749-3.06 3.482a.799.799 0 11-1.598 0c0-2.991 1.915-5.079 4.657-5.079 2.881 0 5.223 2.279 5.223 5.08l-.193 34.341c.002 12.357-9.528 22.04-21.693 22.04z" fill="#FDFDFD"/><path d="M24.998 59.93v-1.599c6.706 0 10.512-4.749 11.526-6.215-1.125-1.462-5.305-6.271-11.526-6.271-2.892 0-5.94.984-9.056 2.924l-.844-1.355c3.374-2.101 6.705-3.167 9.9-3.167 8.17 0 12.962 7.099 13.162 7.401l.27.411-.244.428c-.174.303-4.383 7.443-13.188 7.443z" fill="#FDFDFD"/><path d="M24.039 55.594l.959.244a3.75 3.75 0 003.751-3.75 3.722 3.722 0 00-.345-1.554 1.636 1.636 0 01-1.293.642c-.91 0-1.646-.737-1.646-1.646 0-.415.158-.79.413-1.079a3.763 3.763 0 00-.881-.115 3.754 3.754 0 00-3.589 2.655" fill="#FDFDFD"/></svg>