<svg width="60" height="38" viewBox="0 0 60 38" fill="none" xmlns="http://www.w3.org/2000/svg">
<path d="M0 19C0 19.4628 0.2799 20.0773 0.5639 20.3755L16.5636 37.3758C17.3106 38.1481 18.5208 38.2376 19.3917 37.4538C20.1703 36.7531 20.1897 35.3865 19.4697 34.6256L6.6262 21.0004H57.9998C59.1044 21.0004 59.9998 20.105 59.9998 19.0004C59.9998 17.8958 59.1044 17.0003 57.9998 17.0003H6.6262L19.4697 3.37513C20.1896 2.61433 20.1385 1.28137 19.3917 0.547071C18.6032 -0.228129 17.2992 -0.159126 16.5636 0.625074L0.5639 17.6253C0.0938 18.0864 0.0079 18.5304 0 19V19Z" fill="#7D7D7D" fill-opacity="0.8"/>
</svg>
