<svg xmlns="http://www.w3.org/2000/svg" viewBox="0 0 53.8 35"><g fill="#fff"><path d="M39.2 35H14.5c-1.5 0-2.6-.5-3.3-1.4-1.3-1.9-.2-4.8-.1-5.1L14.5 15c.3-1.4.3-2.7.3-4.3V9.6c0-2.7 1.1-3.2 3.7-3.6 2.4-.4 6-.5 6.1-.5H29c.2 0 3.7.1 6.1.5 2.6.4 3.7.9 3.7 3.6v1.8c0 1.4-.1 2.5.1 3.9L43 29.8v.1c.2 1.3.3 2.9-.7 4-.6.7-1.7 1.1-3.1 1.1zM24.6 6.9s-3.5.1-5.9.5c-2.3.4-2.3.5-2.3 2v1.1c0 1.7 0 3.1-.3 4.7l-3.4 13.6c-.3.8-.8 2.7-.1 3.8.3.5 1 .7 1.9.7h24.7c1 0 1.6-.2 2-.7.6-.6.5-1.8.3-2.7l-4.1-14.6c-.3-1.6-.2-2.9-.2-4.3V9.2c0-1.5-.1-1.6-2.3-2-2.3-.2-5.8-.3-5.9-.3h-4.4z"/><path d="M26.8 30.3c-4.9 0-9-4-9-9 0-4.9 4-9 9-9 .4 0 .8.4.8.8s-.3.9-.8.9c-4.1 0-7.4 3.3-7.4 7.4s3.3 7.4 7.4 7.4 7.4-3.3 7.4-7.4c0-1.3-.3-2.6-1-3.7-.2-.4-.1-.9.3-1.1.4-.2.9-.1 1.1.3.8 1.4 1.2 2.9 1.2 4.5 0 4.9-4.1 8.9-9 8.9z"/><path d="M26.8 25.3c-2.2 0-3.9-1.8-3.9-3.9 0-2.2 1.8-3.9 3.9-3.9 2.2 0 3.9 1.8 3.9 3.9 0 2.1-1.7 3.9-3.9 3.9zm0-6.2c-1.3 0-2.3 1-2.3 2.3s1 2.3 2.3 2.3 2.3-1 2.3-2.3-1-2.3-2.3-2.3z"/><path d="M19.5 25.8c-.3 0-.6-.2-.7-.4-.2-.4 0-.9.4-1.1l4.2-2.1c.4-.2.9 0 1.1.4.2.4 0 .9-.4 1.1l-4.2 2.1h-.4zM23.2 29.5c-.2 0-.5-.1-.6-.3-.3-.3-.2-.8.1-1.1.3-.4 1.3-2.4 2.2-4.2.2-.4.7-.6 1.1-.4.4.2.6.7.4 1.1-2 4.3-2.4 4.7-2.6 4.8-.2 0-.4.1-.6.1z"/></g><g fill="#fff"><path d="M50.3 17.9c-.5 0-.8-.1-.8-.1-.1 0-5.3-1.4-7.6-2.1-2.9-.9-3-3.1-3-3.2L38.8 9c0-.3 0-1.4-1.2-1.6-1.5-.3-7.4-.6-10.3-.7-3.8 0-10.3.2-11.5.8-1 .5-1 1.1-1 2v.3c0 .6.1 2.4.1 2.7.1.9-.4 2.7-3.1 3.4-2.4.6-7.5 2-7.5 2-.1 0-1.8.4-3.1-.6-.8-.8-1.2-1.9-1.2-3.4v-.4c0-3.6 0-7 4.7-9.3C9.2 2 12.6 1.4 15.6.8c3-.6 8.7-.8 9-.8h4.6c.3 0 6 .3 9 .8 3 .6 6.3 1.2 10.9 3.4 4.7 2.3 4.7 5.7 4.7 9.3v.4c0 1.5-.4 2.5-1.3 3.2-.7.6-1.5.8-2.2.8zm-.4-1.7s1 .2 1.7-.3c.4-.4.7-1 .7-2v-.4c0-3.6 0-6-3.8-7.8-4.4-2.1-7.6-2.7-10.6-3.3-2.9-.6-8.7-.8-8.8-.8h-4.5s-5.8.2-8.7.8c-3 .6-6.1 1.2-10.5 3.3-3.8 1.8-3.8 4.2-3.8 7.8v.4c0 .9.2 1.6.7 2 .6.5 1.7.3 1.7.3s5.1-1.4 7.5-2c2-.5 1.9-1.5 1.9-1.6v-.1c0-.1-.1-2.2-.1-2.8v-.2c0-.8-.2-2.6 1.9-3.5C17 5 25.7 5 27.4 5c.4 0 8.5.3 10.6.7 2.1.5 2.5 2.3 2.5 3.3l.1 3.5c0 .1.1 1.1 1.8 1.7 2.3.6 7.4 2 7.5 2z"/><path d="M.8 12.9c-.4 0-.7-.2-.8-.6-.1-.4.1-.9.6-1L14 7.6c.4-.1.9.1 1 .6s-.1.9-.6 1L1 12.9H.8zM53 12.9h-.2L39.5 9.1c-.4-.1-.7-.6-.6-1s.6-.7 1-.6l13.4 3.7c.4.1.7.6.6 1-.2.5-.5.7-.9.7z"/></g></svg>